<?xml version="1.0" encoding="UTF-8"?>
<svg version="1.1" xmlns="http://www.w3.org/2000/svg" width="200" height="200">
<path d="M0 0 C2.25 0.125 2.25 0.125 5 1 C9 6.08108108 9 6.08108108 9 9 C12.28978463 8.21222541 12.28978463 8.21222541 14.375 4.9375 C17 2 17 2 19.8125 1.625 C20.8953125 1.810625 20.8953125 1.810625 22 2 C24.03435531 5.72965139 25 7.66905042 25 12 C27.31 11.34 29.62 10.68 32 10 C32 9.34 32 8.68 32 8 C34.97 7.505 34.97 7.505 38 7 C38.50615298 8.26839526 39.00469099 9.53983102 39.5 10.8125 C39.91765625 11.87404297 39.91765625 11.87404297 40.34375 12.95703125 C41 15 41 15 41 18 C41.88751953 17.65775391 41.88751953 17.65775391 42.79296875 17.30859375 C43.58316406 17.02113281 44.37335938 16.73367187 45.1875 16.4375 C45.96480469 16.14746094 46.74210938 15.85742188 47.54296875 15.55859375 C50 15 50 15 55 16 C55 19.96 55 23.92 55 28 C55.86625 27.67 56.7325 27.34 57.625 27 C60.9740793 26.00768021 63.53279943 25.75810229 67 26 C67.33 26.33 67.66 26.66 68 27 C67.90982004 29.19050021 67.75333792 31.378466 67.5625 33.5625 C67.46066406 34.76003906 67.35882813 35.95757812 67.25390625 37.19140625 C67.17011719 38.11824219 67.08632812 39.04507813 67 40 C70.96 40 74.92 40 79 40 C79 45.39277414 78.56439514 48.11126518 77 53 C77.63808594 53.13277344 78.27617187 53.26554687 78.93359375 53.40234375 C79.75988281 53.57894531 80.58617187 53.75554688 81.4375 53.9375 C82.26121094 54.11152344 83.08492187 54.28554688 83.93359375 54.46484375 C86 55 86 55 87 56 C87.73673311 61.00978512 85.57583383 63.89476483 83 68 C86.3 69.65 89.6 71.3 93 73 C93 74.32 93 75.64 93 77 C92.34 77 91.68 77 91 77 C91 77.66 91 78.32 91 79 C90.34 79 89.68 79 89 79 C89 79.66 89 80.32 89 81 C88.01 81.66 87.02 82.32 86 83 C86 83.66 86 84.32 86 85 C87.134375 85.556875 88.26875 86.11375 89.4375 86.6875 C92.86983743 88.61818981 92.86983743 88.61818981 93.9375 91.75 C93.9684375 92.86375 93.9684375 92.86375 94 94 C88.85714286 98.42857143 88.85714286 98.42857143 85 99 C85 99.99 85 100.98 85 102 C85.5775 102.2475 86.155 102.495 86.75 102.75 C89.38288682 104.2127149 91.12450669 105.63826769 93 108 C92.890625 109.9921875 92.890625 109.9921875 92 112 C89.93359375 113.265625 89.93359375 113.265625 87.4375 114.25 C86.19806641 114.75273437 86.19806641 114.75273437 84.93359375 115.265625 C84.29550781 115.50796875 83.65742188 115.7503125 83 116 C83 117.32 83 118.64 83 120 C83.66 120 84.32 120 85 120 C87.29013653 123.4352048 87.17842973 124.985331 87 129 C81.555 129.99 81.555 129.99 76 131 C76.495 132.03125 76.99 133.0625 77.5 134.125 C78.96692788 137.5293798 79.35582304 140.26385811 79 144 C78 145 78 145 75.49609375 145.09765625 C73.98208984 145.08025391 73.98208984 145.08025391 72.4375 145.0625 C71.42558594 145.05347656 70.41367188 145.04445312 69.37109375 145.03515625 C68.19740234 145.01775391 68.19740234 145.01775391 67 145 C67.08378906 145.85464844 67.16757813 146.70929688 67.25390625 147.58984375 C67.40666016 149.24693359 67.40666016 149.24693359 67.5625 150.9375 C67.66691406 152.03964844 67.77132812 153.14179688 67.87890625 154.27734375 C67.91886719 155.17582031 67.95882812 156.07429687 68 157 C67.67 157.33 67.34 157.66 67 158 C64.97591245 157.90997602 62.95455713 157.75358962 60.9375 157.5625 C59.28041016 157.40974609 59.28041016 157.40974609 57.58984375 157.25390625 C56.73519531 157.17011719 55.88054687 157.08632812 55 157 C55.01160156 157.78246094 55.02320313 158.56492188 55.03515625 159.37109375 C55.04417969 160.38300781 55.05320313 161.39492187 55.0625 162.4375 C55.07410156 163.44683594 55.08570313 164.45617187 55.09765625 165.49609375 C55 168 55 168 54 169 C48.80959948 169.49432386 45.57897612 168.19790854 41 166 C40.34 169.63 39.68 173.26 39 177 C33.375 177.25 33.375 177.25 30 175 C30 174.34 30 173.68 30 173 C28.68 173 27.36 173 26 173 C25.63648437 173.95712891 25.63648437 173.95712891 25.265625 174.93359375 C24.93046875 175.75988281 24.5953125 176.58617187 24.25 177.4375 C23.92515625 178.26121094 23.6003125 179.08492187 23.265625 179.93359375 C22 182 22 182 20.0625 182.9609375 C18 183 18 183 16.296875 181.85546875 C15.78640625 181.30503906 15.2759375 180.75460938 14.75 180.1875 C13.96882813 179.37345703 13.96882813 179.37345703 13.171875 178.54296875 C12 177 12 177 12 175 C11.01 175 10.02 175 9 175 C8.731875 175.928125 8.46375 176.85625 8.1875 177.8125 C6.45920304 182.4516129 6.45920304 182.4516129 4 184 C1.5625 184.125 1.5625 184.125 -1 183 C-2.6593067 180.75725965 -3.7606756 178.52454969 -5 176 C-8.11785113 176.64644661 -8.11785113 176.64644661 -9 179 C-9.66 179 -10.32 179 -11 179 C-11 179.66 -11 180.32 -11 181 C-11.66 181 -12.32 181 -13 181 C-13 181.66 -13 182.32 -13 183 C-15.25 183.0625 -15.25 183.0625 -18 182 C-19.69300427 179.13325156 -20.86963623 176.12586629 -22 173 C-23.5778125 173.99 -23.5778125 173.99 -25.1875 175 C-28.26623937 176.7771585 -30.38596328 177.43806506 -34 177 C-35.88391785 173.73454239 -36.49287967 170.71888239 -37 167 C-38.03125 167.33 -39.0625 167.66 -40.125 168 C-43.73109421 169.15395015 -45.85406376 169 -50 169 C-50 165.04 -50 161.08 -50 157 C-50.92683594 157.08378906 -51.85367188 157.16757813 -52.80859375 157.25390625 C-54.00613281 157.35574219 -55.20367187 157.45757812 -56.4375 157.5625 C-57.63246094 157.66691406 -58.82742187 157.77132812 -60.05859375 157.87890625 C-61.02925781 157.91886719 -61.99992187 157.95882812 -63 158 C-63.33 157.67 -63.66 157.34 -64 157 C-63.9140625 155.0390625 -63.9140625 155.0390625 -63.625 152.625 C-63.48964844 151.43777344 -63.48964844 151.43777344 -63.3515625 150.2265625 C-63 148 -63 148 -62 145 C-65.96 145 -69.92 145 -74 145 C-75.22495472 138.87522638 -74.13139561 136.71214025 -72 131 C-75.3 130.34 -78.6 129.68 -82 129 C-83 124 -83 124 -82 122 C-81.34 122 -80.68 122 -80 122 C-79.34 119.69 -78.68 117.38 -78 115 C-79.36125 114.814375 -79.36125 114.814375 -80.75 114.625 C-83.58970323 114.07890323 -85.52590591 113.42736197 -88 112 C-88.375 109.8125 -88.375 109.8125 -88 107 C-86.05874656 105.26526288 -84.05727132 103.5954349 -82 102 C-81.67 101.01 -81.34 100.02 -81 99 C-82.11375 98.5978125 -82.11375 98.5978125 -83.25 98.1875 C-85.86636554 97.05770579 -87.80187111 95.79106798 -90 94 C-89.9375 91.75 -89.9375 91.75 -89 89 C-86.7691525 87.32150176 -84.52594094 86.24000737 -82 85 C-82 83.68 -82 82.36 -82 81 C-82.61875 80.71125 -83.2375 80.4225 -83.875 80.125 C-86 79 -86 79 -88 77 C-88.125 74.375 -88.125 74.375 -88 72 C-86.70990357 71.49596232 -85.41786211 70.99690074 -84.125 70.5 C-83.40570313 70.2215625 -82.68640625 69.943125 -81.9453125 69.65625 C-80 69 -80 69 -78 69 C-78.37253906 68.40832031 -78.74507812 67.81664063 -79.12890625 67.20703125 C-79.83853516 66.02173828 -79.83853516 66.02173828 -80.5625 64.8125 C-81.03816406 64.03519531 -81.51382813 63.25789063 -82.00390625 62.45703125 C-83.19605797 59.51639033 -82.88855164 57.99553637 -82 55 C-78.52674819 53.8422494 -75.63932552 53.93133348 -72 54 C-72.22816406 53.40832031 -72.45632812 52.81664062 -72.69140625 52.20703125 C-72.97886719 51.41683594 -73.26632813 50.62664063 -73.5625 49.8125 C-73.85253906 49.03519531 -74.14257812 48.25789063 -74.44140625 47.45703125 C-75 45 -75 45 -74 40 C-68.555 39.505 -68.555 39.505 -63 39 C-63.08378906 38.14535156 -63.16757812 37.29070313 -63.25390625 36.41015625 C-63.35574219 35.30542969 -63.45757812 34.20070312 -63.5625 33.0625 C-63.66691406 31.96035156 -63.77132812 30.85820313 -63.87890625 29.72265625 C-63.91886719 28.82417969 -63.95882812 27.92570312 -64 27 C-63.67 26.67 -63.34 26.34 -63 26 C-60.97591245 26.09002398 -58.95455713 26.24641038 -56.9375 26.4375 C-55.83277344 26.53933594 -54.72804687 26.64117187 -53.58984375 26.74609375 C-52.73519531 26.82988281 -51.88054688 26.91367187 -51 27 C-50.67 23.37 -50.34 19.74 -50 16 C-45.28378312 15.05675662 -44.32291545 14.89443453 -40.1875 16.4375 C-39.39730469 16.72496094 -38.60710938 17.01242188 -37.79296875 17.30859375 C-37.20128906 17.53675781 -36.60960937 17.76492187 -36 18 C-36.04125 16.9275 -36.0825 15.855 -36.125 14.75 C-36.0114175 11.34252515 -35.78726636 9.79260369 -34 7 C-28.71862571 7.51525603 -25.42778844 9.25477117 -21 12 C-20.5359375 10.3603125 -20.5359375 10.3603125 -20.0625 8.6875 C-19.41662103 6.44592006 -18.7376883 4.2130649 -18 2 C-15.75 1.75 -15.75 1.75 -13 2 C-10.6875 3.875 -10.6875 3.875 -9 6 C-9 6.66 -9 7.32 -9 8 C-7.68 8 -6.36 8 -5 8 C-3.42481549 6.25522367 -3.42481549 6.25522367 -2.25 4 C-1.82203125 3.2575 -1.3940625 2.515 -0.953125 1.75 C-0.48132813 0.88375 -0.48132813 0.88375 0 0 Z M-1.8125 18.1875 C-3.23405288 19.99609411 -3.23405288 19.99609411 -3 22.5625 C-2.20004009 25.20069654 -2.20004009 25.20069654 0.375 26.4375 C1.24125 26.623125 2.1075 26.80875 3 27 C3.99 26.34 4.98 25.68 6 25 C6.41666667 22 6.41666667 22 6 19 C5.34 18.34 4.68 17.68 4 17 C0.19649626 16.63464916 0.19649626 16.63464916 -1.8125 18.1875 Z M-22.125 29.5 C-22.78298584 29.76554687 -23.44097168 30.03109375 -24.11889648 30.3046875 C-32.97151504 34.05519564 -40.64822129 39.78987281 -47 47 C-47 47.66 -47 48.32 -47 49 C-47.66 49 -48.32 49 -49 49 C-52.93342199 54.65429411 -53.98939551 59.13109326 -53 66 C-51.58376759 69.25058324 -51.58376759 69.25058324 -50 72 C-49.625 74.6875 -49.625 74.6875 -50 77 C-52.82279422 80.5810205 -56.51365971 81.32806097 -60.72265625 82.64453125 C-63.22233401 83.85893667 -63.22233401 83.85893667 -64.34765625 86.6328125 C-65.11571216 90.59726874 -64.91398513 94.10379373 -64.375 98.0625 C-64.28234863 98.80040771 -64.18969727 99.53831543 -64.09423828 100.29858398 C-63.14988821 107.12928463 -61.32693049 113.50492702 -59 120 C-55.91535487 118.81728632 -53.03493361 117.54996095 -50.1875 115.875 C-49.135625 115.25625 -48.08375 114.6375 -47 114 C-47.309375 113.13375 -47.61875 112.2675 -47.9375 111.375 C-51.50955815 98.82176707 -50.83113275 85.64215816 -45 74 C-44.46117188 73.28457031 -43.92234375 72.56914063 -43.3671875 71.83203125 C-41.80063853 70.1138463 -41.80063853 70.1138463 -42 68 C-41.34 68 -40.68 68 -40 68 C-40 67.34 -40 66.68 -40 66 C-39.34 66 -38.68 66 -38 66 C-38 65.34 -38 64.68 -38 64 C-37.48179688 63.7421875 -36.96359375 63.484375 -36.4296875 63.21875 C-34.53504554 62.26838297 -32.64541654 61.30802001 -30.7578125 60.34375 C-29.54692309 59.72907193 -28.33598436 59.114491 -27.125 58.5 C-26.52558594 58.19191406 -25.92617187 57.88382813 -25.30859375 57.56640625 C-13.74873913 51.72378992 -2.63663844 51.72921489 10 52 C10.85078125 52.01675781 11.7015625 52.03351562 12.578125 52.05078125 C19.48102215 52.49819125 25.68116028 55.35331443 32 58 C34.20192224 54.69711664 34.23959968 53.72537273 34.1953125 49.89453125 C34.18886719 48.91162109 34.18242187 47.92871094 34.17578125 46.91601562 C34.15902344 45.89185547 34.14226562 44.86769531 34.125 43.8125 C34.11597656 42.77673828 34.10695313 41.74097656 34.09765625 40.67382812 C34.0740786 38.11565315 34.0411703 35.55794252 34 33 C32.73118661 32.35795439 31.46148122 31.71767137 30.19140625 31.078125 C29.48443604 30.72137695 28.77746582 30.36462891 28.04907227 29.99707031 C22.99498786 27.53777319 18.64423474 26.37286281 13 27 C10.51768273 28.73010388 10.51768273 28.73010388 9 31 C9 31.66 9 32.32 9 33 C8.34 33 7.68 33 7 33 C7 33.66 7 34.32 7 35 C4.28965134 35.84698396 2.76688341 36.31146905 0 36 C-3.03157833 34.01886084 -5.49251355 31.59971584 -8 29 C-9.79147967 26.80131803 -9.79147967 26.80131803 -12.1796875 26.71875 C-15.74395679 27.0741896 -18.83189896 28.16642668 -22.125 29.5 Z M48 45 C48.495 65.295 48.495 65.295 49 86 C44.05 85.67 39.1 85.34 34 85 C33.0234375 82.75390625 32.046875 80.5078125 31.0703125 78.26171875 C29.97428106 75.8038166 29.97428106 75.8038166 28 73 C27.34 73 26.68 73 26 73 C26 72.34 26 71.68 26 71 C17.73864011 64.55210935 9.19739789 64.03211139 -1 65 C-5.50536016 66.33212881 -9.11050225 68.4070015 -13 71 C-13 71.66 -13 72.32 -13 73 C-13.66 73 -14.32 73 -15 73 C-21.57122591 84.60916578 -22.11883268 96.05709073 -18.984375 108.890625 C-17.63020595 113.16807963 -16.05685885 115.71946855 -13 119 C-10.91360086 119.69818519 -10.91360086 119.69818519 -9 120 C-9 120.66 -9 121.32 -9 122 C0.8651517 125.99938582 12.90070759 126.24445071 22.8125 122.3125 C28.71027289 119.40001956 31.67317932 115.39192065 33.8125 109.25 C34.49280049 107.03996305 35 105.3108659 35 103 C39.95 103 44.9 103 50 103 C48.19784657 115.47644684 48.19784657 115.47644684 45 121 C45 121.66 45 122.32 45 123 C44.34 123 43.68 123 43 123 C41.62926214 124.63604196 40.29944744 126.30678061 39 128 C32.16871231 135.89484146 19.47359423 138.00982088 9.55859375 138.83984375 C-4.8009368 139.73868459 -20.31863268 138.38521213 -32.40625 129.98828125 C-33.97073896 128.82433338 -33.97073896 128.82433338 -36 129 C-36 128.34 -36 127.68 -36 127 C-38.987406 125.62768396 -38.987406 125.62768396 -41.69921875 127.21484375 C-42.68535156 127.78332031 -43.67148437 128.35179687 -44.6875 128.9375 C-45.68136719 129.50339844 -46.67523438 130.06929688 -47.69921875 130.65234375 C-48.45847656 131.09707031 -49.21773437 131.54179687 -50 132 C-48.68 133.98 -47.36 135.96 -46 138 C-45.34773438 137.84402344 -44.69546875 137.68804687 -44.0234375 137.52734375 C-39.02937096 136.41509589 -35.06165813 135.6679847 -30 137 C-29.51787786 138.56159059 -29.03944127 140.12431928 -28.5625 141.6875 C-28.29566406 142.55761719 -28.02882813 143.42773438 -27.75390625 144.32421875 C-27 147 -27 147 -26.68359375 149.6953125 C-26.22326017 152.15641626 -26.22326017 152.15641626 -24.03125 153.29296875 C-21.36375565 154.23564808 -18.70115399 155.15782986 -16 156 C-15.3296875 156.22816406 -14.659375 156.45632812 -13.96875 156.69140625 C-0.93862599 160.3884454 13.45834884 158.41698254 26 154 C26.76183594 153.77183594 27.52367188 153.54367188 28.30859375 153.30859375 C31.11641303 151.13626244 31.09094112 148.32719582 31.6875 144.9375 C32.93672457 138.06327543 32.93672457 138.06327543 34 137 C39.39881588 136.65431311 44.69982429 136.88417353 50 138 C50.99 136.02 50.99 136.02 52 134 C52.66 134 53.32 134 54 134 C60.06682969 127.25704772 62.86868864 118.33758808 66 110 C66.37253906 109.18015625 66.74507813 108.3603125 67.12890625 107.515625 C68.28825272 104.16755716 68.47207256 101.03159733 68.6875 97.5 C68.81705078 95.56640625 68.81705078 95.56640625 68.94921875 93.59375 C69.01277311 89.2058223 69.01277311 89.2058223 68 85 C66.35339011 83.61562073 66.35339011 83.61562073 64.25 82.8125 C63.17492187 82.33490234 63.17492187 82.33490234 62.078125 81.84765625 C61.04945313 81.42806641 61.04945313 81.42806641 60 81 C59.01 80.5875 58.02 80.175 57 79.75 C56.34 79.5025 55.68 79.255 55 79 C53.64430323 73.11283058 54.44422901 70.36271224 57.3125 65.125 C59.07785233 61.58198334 60.31529568 59.06144791 59.13671875 55.09375 C57.58127007 52.74758397 56.13489566 50.83406945 54 49 C53.34 49 52.68 49 52 49 C52 48.34 52 47.68 52 47 C51.34 47 50.68 47 50 47 C50 46.34 50 45.68 50 45 C49.34 45 48.68 45 48 45 Z M-66.875 68.1875 C-68.27887164 70.02996899 -68.27887164 70.02996899 -67.6875 72.6875 C-67.460625 73.450625 -67.23375 74.21375 -67 75 C-64.69 75.33 -62.38 75.66 -60 76 C-57.68456793 73.23011924 -57.68456793 73.23011924 -58.3125 70.375 C-58.7741514 68.06498035 -58.7741514 68.06498035 -60 67 C-62.83359542 66.7017268 -64.43785378 66.64397406 -66.875 68.1875 Z M63.1875 68.1875 C61.72491383 70.00808993 61.72491383 70.00808993 62.25 72.625 C62.77745645 74.9312407 62.77745645 74.9312407 64 76 C65.99958364 76.04080783 68.00045254 76.04254356 70 76 C71.29042763 73.73398135 71.29042763 73.73398135 72 71 C71.00965774 68.59616005 71.00965774 68.59616005 69 67 C65.19649626 66.63464916 65.19649626 66.63464916 63.1875 68.1875 Z M-43 145 C-43.5 148 -43.5 148 -43 151 C-40.23011924 153.31543207 -40.23011924 153.31543207 -37.375 152.6875 C-35.06498035 152.2258486 -35.06498035 152.2258486 -34 151 C-33.66659529 148.04195427 -33.66659529 148.04195427 -34 145 C-38.01009099 142.32660601 -38.98990901 142.32660601 -43 145 Z M38 145 C36.91975342 147.40110217 36.91975342 147.40110217 37 150 C37.93597315 152.01951062 37.93597315 152.01951062 40 153 C43.14921909 152.76716851 43.14921909 152.76716851 46 152 C46.85974801 149.70705512 46.85974801 149.70705512 47 147 C45.2287382 144.64477775 45.2287382 144.64477775 43 143 C40.9523348 143 39.67362323 143.90168475 38 145 Z " fill="#000000" transform="translate(98,8)"/>
<path d="" fill="#000000" transform="translate(0,0)"/>
</svg>
