<?xml version="1.0" encoding="UTF-8"?>
<svg version="1.1" xmlns="http://www.w3.org/2000/svg" width="1000" height="1000">
<path d="M0 0 C66 0 132 0 200 0 C200 19.8 200 39.6 200 60 C193.4 60 186.8 60 180 60 C180 86.4 180 112.8 180 140 C173.4 140 166.8 140 160 140 C160 146.6 160 153.2 160 160 C153.4 160 146.8 160 140 160 C140 166.6 140 173.2 140 180 C133.4 180 126.8 180 120 180 C120 186.6 120 193.2 120 200 C106.8 200 93.6 200 80 200 C80 206.6 80 213.2 80 220 C73.4 220 66.8 220 60 220 C60 226.6 60 233.2 60 240 C53.4 240 46.8 240 40 240 C40 246.6 40 253.2 40 260 C33.4 260 26.8 260 20 260 C20 266.6 20 273.2 20 280 C6.8 280 -6.4 280 -20 280 C-20 339.4 -20 398.8 -20 460 C13 460 46 460 80 460 C80 466.6 80 473.2 80 480 C86.6 480 93.2 480 100 480 C100 539.4 100 598.8 100 660 C93.4 660 86.8 660 80 660 C80 666.6 80 673.2 80 680 C73.4 680 66.8 680 60 680 C60 693.2 60 706.4 60 720 C53.4 720 46.8 720 40 720 C40 726.6 40 733.2 40 740 C33.4 740 26.8 740 20 740 C20 733.4 20 726.8 20 720 C13.4 720 6.8 720 0 720 C0 713.4 0 706.8 0 700 C-6.6 700 -13.2 700 -20 700 C-20 693.4 -20 686.8 -20 680 C-13.4 680 -6.8 680 0 680 C0 673.4 0 666.8 0 660 C6.6 660 13.2 660 20 660 C20 653.4 20 646.8 20 640 C26.6 640 33.2 640 40 640 C40 607 40 574 40 540 C33.4 540 26.8 540 20 540 C20 546.6 20 553.2 20 560 C0.2 560 -19.6 560 -40 560 C-40 566.6 -40 573.2 -40 580 C-46.6 580 -53.2 580 -60 580 C-60 599.8 -60 619.6 -60 640 C-66.6 640 -73.2 640 -80 640 C-80 633.4 -80 626.8 -80 620 C-86.6 620 -93.2 620 -100 620 C-100 613.4 -100 606.8 -100 600 C-106.6 600 -113.2 600 -120 600 C-120 593.4 -120 586.8 -120 580 C-126.6 580 -133.2 580 -140 580 C-140 573.4 -140 566.8 -140 560 C-146.6 560 -153.2 560 -160 560 C-160 553.4 -160 546.8 -160 540 C-166.6 540 -173.2 540 -180 540 C-180 533.4 -180 526.8 -180 520 C-186.6 520 -193.2 520 -200 520 C-200 513.4 -200 506.8 -200 500 C-206.6 500 -213.2 500 -220 500 C-220 493.4 -220 486.8 -220 480 C-226.6 480 -233.2 480 -240 480 C-240 473.4 -240 466.8 -240 460 C-246.6 460 -253.2 460 -260 460 C-260 453.4 -260 446.8 -260 440 C-266.6 440 -273.2 440 -280 440 C-280 433.4 -280 426.8 -280 420 C-286.6 420 -293.2 420 -300 420 C-300 413.4 -300 406.8 -300 400 C-306.6 400 -313.2 400 -320 400 C-320 386.8 -320 373.6 -320 360 C-313.4 360 -306.8 360 -300 360 C-300 346.8 -300 333.6 -300 320 C-293.4 320 -286.8 320 -280 320 C-280 313.4 -280 306.8 -280 300 C-293.2 300 -306.4 300 -320 300 C-320 306.6 -320 313.2 -320 320 C-346.4 320 -372.8 320 -400 320 C-400 313.4 -400 306.8 -400 300 C-406.6 300 -413.2 300 -420 300 C-420 293.4 -420 286.8 -420 280 C-426.6 280 -433.2 280 -440 280 C-440 273.4 -440 266.8 -440 260 C-446.6 260 -453.2 260 -460 260 C-460 246.8 -460 233.6 -460 220 C-453.4 220 -446.8 220 -440 220 C-440 213.4 -440 206.8 -440 200 C-433.4 200 -426.8 200 -420 200 C-420 193.4 -420 186.8 -420 180 C-406.8 180 -393.6 180 -380 180 C-380 173.4 -380 166.8 -380 160 C-333.8 160 -287.6 160 -240 160 C-240 153.4 -240 146.8 -240 140 C-233.4 140 -226.8 140 -220 140 C-220 133.4 -220 126.8 -220 120 C-213.4 120 -206.8 120 -200 120 C-200 113.4 -200 106.8 -200 100 C-193.4 100 -186.8 100 -180 100 C-180 93.4 -180 86.8 -180 80 C-173.4 80 -166.8 80 -160 80 C-160 73.4 -160 66.8 -160 60 C-153.4 60 -146.8 60 -140 60 C-140 53.4 -140 46.8 -140 40 C-113.6 40 -87.2 40 -60 40 C-60 33.4 -60 26.8 -60 20 C-40.2 20 -20.4 20 0 20 C0 13.4 0 6.8 0 0 Z " fill="#CCCCCC" transform="translate(800,260)"/>
<path d="M0 0 C13.2 0 26.4 0 40 0 C40 6.6 40 13.2 40 20 C46.6 20 53.2 20 60 20 C60 26.6 60 33.2 60 40 C66.6 40 73.2 40 80 40 C80 46.6 80 53.2 80 60 C86.6 60 93.2 60 100 60 C100 66.6 100 73.2 100 80 C106.6 80 113.2 80 120 80 C120 86.6 120 93.2 120 100 C126.6 100 133.2 100 140 100 C140 106.6 140 113.2 140 120 C146.6 120 153.2 120 160 120 C160 126.6 160 133.2 160 140 C166.6 140 173.2 140 180 140 C180 146.6 180 153.2 180 160 C186.6 160 193.2 160 200 160 C200 166.6 200 173.2 200 180 C206.6 180 213.2 180 220 180 C220 186.6 220 193.2 220 200 C226.6 200 233.2 200 240 200 C240 206.6 240 213.2 240 220 C246.6 220 253.2 220 260 220 C260 226.6 260 233.2 260 240 C266.6 240 273.2 240 280 240 C280 246.6 280 253.2 280 260 C286.6 260 293.2 260 300 260 C300 266.6 300 273.2 300 280 C306.6 280 313.2 280 320 280 C320 286.6 320 293.2 320 300 C326.6 300 333.2 300 340 300 C340 306.6 340 313.2 340 320 C346.6 320 353.2 320 360 320 C360 326.6 360 333.2 360 340 C366.6 340 373.2 340 380 340 C380 346.6 380 353.2 380 360 C386.6 360 393.2 360 400 360 C400 366.6 400 373.2 400 380 C406.6 380 413.2 380 420 380 C420 386.6 420 393.2 420 400 C426.6 400 433.2 400 440 400 C440 406.6 440 413.2 440 420 C446.6 420 453.2 420 460 420 C460 426.6 460 433.2 460 440 C466.6 440 473.2 440 480 440 C480 446.6 480 453.2 480 460 C249 460 18 460 -220 460 C-220 453.4 -220 446.8 -220 440 C-226.6 440 -233.2 440 -240 440 C-240 433.4 -240 426.8 -240 420 C-246.6 420 -253.2 420 -260 420 C-260 413.4 -260 406.8 -260 400 C-266.6 400 -273.2 400 -280 400 C-280 393.4 -280 386.8 -280 380 C-286.6 380 -293.2 380 -300 380 C-300 373.4 -300 366.8 -300 360 C-306.6 360 -313.2 360 -320 360 C-320 346.8 -320 333.6 -320 320 C-313.4 320 -306.8 320 -300 320 C-300 313.4 -300 306.8 -300 300 C-293.4 300 -286.8 300 -280 300 C-280 293.4 -280 286.8 -280 280 C-273.4 280 -266.8 280 -260 280 C-260 273.4 -260 266.8 -260 260 C-253.4 260 -246.8 260 -240 260 C-240 253.4 -240 246.8 -240 240 C-233.4 240 -226.8 240 -220 240 C-220 233.4 -220 226.8 -220 220 C-213.4 220 -206.8 220 -200 220 C-200 213.4 -200 206.8 -200 200 C-193.4 200 -186.8 200 -180 200 C-180 193.4 -180 186.8 -180 180 C-173.4 180 -166.8 180 -160 180 C-160 173.4 -160 166.8 -160 160 C-153.4 160 -146.8 160 -140 160 C-140 153.4 -140 146.8 -140 140 C-133.4 140 -126.8 140 -120 140 C-120 133.4 -120 126.8 -120 120 C-113.4 120 -106.8 120 -100 120 C-100 113.4 -100 106.8 -100 100 C-93.4 100 -86.8 100 -80 100 C-80 93.4 -80 86.8 -80 80 C-73.4 80 -66.8 80 -60 80 C-60 73.4 -60 66.8 -60 60 C-53.4 60 -46.8 60 -40 60 C-40 53.4 -40 46.8 -40 40 C-33.4 40 -26.8 40 -20 40 C-20 33.4 -20 26.8 -20 20 C-13.4 20 -6.8 20 0 20 C0 13.4 0 6.8 0 0 Z " fill="#E2E2E2" transform="translate(320,540)"/>
<path d="M0 0 C39.6 0 79.2 0 120 0 C120 6.6 120 13.2 120 20 C126.6 20 133.2 20 140 20 C140 79.4 140 138.8 140 200 C146.6 200 153.2 200 160 200 C160 206.6 160 213.2 160 220 C166.6 220 173.2 220 180 220 C180 233.2 180 246.4 180 260 C186.6 260 193.2 260 200 260 C200 273.2 200 286.4 200 300 C193.4 300 186.8 300 180 300 C180 306.6 180 313.2 180 320 C173.4 320 166.8 320 160 320 C160 326.6 160 333.2 160 340 C153.4 340 146.8 340 140 340 C140 346.6 140 353.2 140 360 C133.4 360 126.8 360 120 360 C120 366.6 120 373.2 120 380 C113.4 380 106.8 380 100 380 C100 386.6 100 393.2 100 400 C80.2 400 60.4 400 40 400 C40 393.4 40 386.8 40 380 C33.4 380 26.8 380 20 380 C20 373.4 20 366.8 20 360 C6.8 360 -6.4 360 -20 360 C-20 353.4 -20 346.8 -20 340 C-26.6 340 -33.2 340 -40 340 C-40 333.4 -40 326.8 -40 320 C-46.6 320 -53.2 320 -60 320 C-60 313.4 -60 306.8 -60 300 C-99.6 300 -139.2 300 -180 300 C-180 293.4 -180 286.8 -180 280 C-186.6 280 -193.2 280 -200 280 C-200 247 -200 214 -200 180 C-193.4 180 -186.8 180 -180 180 C-180 173.4 -180 166.8 -180 160 C-173.4 160 -166.8 160 -160 160 C-160 153.4 -160 146.8 -160 140 C-153.4 140 -146.8 140 -140 140 C-140 133.4 -140 126.8 -140 120 C-133.4 120 -126.8 120 -120 120 C-120 113.4 -120 106.8 -120 100 C-113.4 100 -106.8 100 -100 100 C-100 93.4 -100 86.8 -100 80 C-93.4 80 -86.8 80 -80 80 C-80 73.4 -80 66.8 -80 60 C-73.4 60 -66.8 60 -60 60 C-60 53.4 -60 46.8 -60 40 C-53.4 40 -46.8 40 -40 40 C-40 33.4 -40 26.8 -40 20 C-26.8 20 -13.6 20 0 20 C0 13.4 0 6.8 0 0 Z " fill="#CCCCCC" transform="translate(460,0)"/>
<path d="M0 0 C13.2 0 26.4 0 40 0 C40 6.6 40 13.2 40 20 C46.6 20 53.2 20 60 20 C60 26.6 60 33.2 60 40 C66.6 40 73.2 40 80 40 C80 46.6 80 53.2 80 60 C86.6 60 93.2 60 100 60 C100 66.6 100 73.2 100 80 C106.6 80 113.2 80 120 80 C120 86.6 120 93.2 120 100 C126.6 100 133.2 100 140 100 C140 106.6 140 113.2 140 120 C146.6 120 153.2 120 160 120 C160 126.6 160 133.2 160 140 C166.6 140 173.2 140 180 140 C180 146.6 180 153.2 180 160 C186.6 160 193.2 160 200 160 C200 166.6 200 173.2 200 180 C206.6 180 213.2 180 220 180 C220 186.6 220 193.2 220 200 C226.6 200 233.2 200 240 200 C240 206.6 240 213.2 240 220 C246.6 220 253.2 220 260 220 C260 226.6 260 233.2 260 240 C266.6 240 273.2 240 280 240 C280 246.6 280 253.2 280 260 C286.6 260 293.2 260 300 260 C300 266.6 300 273.2 300 280 C306.6 280 313.2 280 320 280 C320 286.6 320 293.2 320 300 C326.6 300 333.2 300 340 300 C340 306.6 340 313.2 340 320 C346.6 320 353.2 320 360 320 C360 326.6 360 333.2 360 340 C366.6 340 373.2 340 380 340 C380 346.6 380 353.2 380 360 C386.6 360 393.2 360 400 360 C400 366.6 400 373.2 400 380 C406.6 380 413.2 380 420 380 C420 386.6 420 393.2 420 400 C426.6 400 433.2 400 440 400 C440 406.6 440 413.2 440 420 C446.6 420 453.2 420 460 420 C460 426.6 460 433.2 460 440 C466.6 440 473.2 440 480 440 C480 446.6 480 453.2 480 460 C466.8 460 453.6 460 440 460 C440 453.4 440 446.8 440 440 C433.4 440 426.8 440 420 440 C420 433.4 420 426.8 420 420 C413.4 420 406.8 420 400 420 C400 413.4 400 406.8 400 400 C393.4 400 386.8 400 380 400 C380 393.4 380 386.8 380 380 C373.4 380 366.8 380 360 380 C360 373.4 360 366.8 360 360 C353.4 360 346.8 360 340 360 C340 353.4 340 346.8 340 340 C333.4 340 326.8 340 320 340 C320 333.4 320 326.8 320 320 C313.4 320 306.8 320 300 320 C300 313.4 300 306.8 300 300 C293.4 300 286.8 300 280 300 C280 293.4 280 286.8 280 280 C273.4 280 266.8 280 260 280 C260 273.4 260 266.8 260 260 C253.4 260 246.8 260 240 260 C240 253.4 240 246.8 240 240 C233.4 240 226.8 240 220 240 C220 233.4 220 226.8 220 220 C213.4 220 206.8 220 200 220 C200 213.4 200 206.8 200 200 C193.4 200 186.8 200 180 200 C180 193.4 180 186.8 180 180 C173.4 180 166.8 180 160 180 C160 173.4 160 166.8 160 160 C153.4 160 146.8 160 140 160 C140 153.4 140 146.8 140 140 C133.4 140 126.8 140 120 140 C120 133.4 120 126.8 120 120 C113.4 120 106.8 120 100 120 C100 113.4 100 106.8 100 100 C93.4 100 86.8 100 80 100 C80 93.4 80 86.8 80 80 C73.4 80 66.8 80 60 80 C60 73.4 60 66.8 60 60 C53.4 60 46.8 60 40 60 C40 53.4 40 46.8 40 40 C26.8 40 13.6 40 0 40 C0 46.6 0 53.2 0 60 C-6.6 60 -13.2 60 -20 60 C-20 66.6 -20 73.2 -20 80 C-26.6 80 -33.2 80 -40 80 C-40 86.6 -40 93.2 -40 100 C-46.6 100 -53.2 100 -60 100 C-60 106.6 -60 113.2 -60 120 C-66.6 120 -73.2 120 -80 120 C-80 126.6 -80 133.2 -80 140 C-86.6 140 -93.2 140 -100 140 C-100 146.6 -100 153.2 -100 160 C-106.6 160 -113.2 160 -120 160 C-120 166.6 -120 173.2 -120 180 C-126.6 180 -133.2 180 -140 180 C-140 186.6 -140 193.2 -140 200 C-146.6 200 -153.2 200 -160 200 C-160 206.6 -160 213.2 -160 220 C-166.6 220 -173.2 220 -180 220 C-180 226.6 -180 233.2 -180 240 C-186.6 240 -193.2 240 -200 240 C-200 246.6 -200 253.2 -200 260 C-206.6 260 -213.2 260 -220 260 C-220 266.6 -220 273.2 -220 280 C-226.6 280 -233.2 280 -240 280 C-240 286.6 -240 293.2 -240 300 C-246.6 300 -253.2 300 -260 300 C-260 306.6 -260 313.2 -260 320 C-266.6 320 -273.2 320 -280 320 C-280 333.2 -280 346.4 -280 360 C-273.4 360 -266.8 360 -260 360 C-260 366.6 -260 373.2 -260 380 C-253.4 380 -246.8 380 -240 380 C-240 386.6 -240 393.2 -240 400 C-233.4 400 -226.8 400 -220 400 C-220 406.6 -220 413.2 -220 420 C-213.4 420 -206.8 420 -200 420 C-200 426.6 -200 433.2 -200 440 C-193.4 440 -186.8 440 -180 440 C-180 446.6 -180 453.2 -180 460 C-193.2 460 -206.4 460 -220 460 C-220 453.4 -220 446.8 -220 440 C-226.6 440 -233.2 440 -240 440 C-240 433.4 -240 426.8 -240 420 C-246.6 420 -253.2 420 -260 420 C-260 413.4 -260 406.8 -260 400 C-266.6 400 -273.2 400 -280 400 C-280 393.4 -280 386.8 -280 380 C-286.6 380 -293.2 380 -300 380 C-300 373.4 -300 366.8 -300 360 C-306.6 360 -313.2 360 -320 360 C-320 346.8 -320 333.6 -320 320 C-313.4 320 -306.8 320 -300 320 C-300 313.4 -300 306.8 -300 300 C-293.4 300 -286.8 300 -280 300 C-280 293.4 -280 286.8 -280 280 C-273.4 280 -266.8 280 -260 280 C-260 273.4 -260 266.8 -260 260 C-253.4 260 -246.8 260 -240 260 C-240 253.4 -240 246.8 -240 240 C-233.4 240 -226.8 240 -220 240 C-220 233.4 -220 226.8 -220 220 C-213.4 220 -206.8 220 -200 220 C-200 213.4 -200 206.8 -200 200 C-193.4 200 -186.8 200 -180 200 C-180 193.4 -180 186.8 -180 180 C-173.4 180 -166.8 180 -160 180 C-160 173.4 -160 166.8 -160 160 C-153.4 160 -146.8 160 -140 160 C-140 153.4 -140 146.8 -140 140 C-133.4 140 -126.8 140 -120 140 C-120 133.4 -120 126.8 -120 120 C-113.4 120 -106.8 120 -100 120 C-100 113.4 -100 106.8 -100 100 C-93.4 100 -86.8 100 -80 100 C-80 93.4 -80 86.8 -80 80 C-73.4 80 -66.8 80 -60 80 C-60 73.4 -60 66.8 -60 60 C-53.4 60 -46.8 60 -40 60 C-40 53.4 -40 46.8 -40 40 C-33.4 40 -26.8 40 -20 40 C-20 33.4 -20 26.8 -20 20 C-13.4 20 -6.8 20 0 20 C0 13.4 0 6.8 0 0 Z " fill="#0C0C0C" transform="translate(320,540)"/>
<path d="M0 0 C6.6 0 13.2 0 20 0 C20 6.6 20 13.2 20 20 C26.6 20 33.2 20 40 20 C40 46.4 40 72.8 40 100 C13.6 100 -12.8 100 -40 100 C-40 93.4 -40 86.8 -40 80 C-46.6 80 -53.2 80 -60 80 C-60 73.4 -60 66.8 -60 60 C-40.2 60 -20.4 60 0 60 C0 40.2 0 20.4 0 0 Z " fill="#0C0C0C" transform="translate(340,640)"/>
<path d="M0 0 C13.2 0 26.4 0 40 0 C40 6.6 40 13.2 40 20 C46.6 20 53.2 20 60 20 C60 33.2 60 46.4 60 60 C53.4 60 46.8 60 40 60 C40 66.6 40 73.2 40 80 C26.8 80 13.6 80 0 80 C0 73.4 0 66.8 0 60 C-6.6 60 -13.2 60 -20 60 C-20 46.8 -20 33.6 -20 20 C-13.4 20 -6.8 20 0 20 C0 13.4 0 6.8 0 0 Z " fill="#000000" transform="translate(660,340)"/>
<path d="M0 0 C6.6 0 13.2 0 20 0 C20 6.6 20 13.2 20 20 C26.6 20 33.2 20 40 20 C40 26.6 40 33.2 40 40 C46.6 40 53.2 40 60 40 C60 53.2 60 66.4 60 80 C53.4 80 46.8 80 40 80 C40 73.4 40 66.8 40 60 C33.4 60 26.8 60 20 60 C20 53.4 20 46.8 20 40 C13.4 40 6.8 40 0 40 C0 26.8 0 13.6 0 0 Z " fill="#0C0C0C" transform="translate(340,780)"/>
</svg>
